<mxfile host="app.diagrams.net" modified="2022-07-31T09:27:11.496Z" agent="5.0 (Macintosh; Intel Mac OS X 10_15_7) AppleWebKit/537.36 (KHTML, like Gecko) Chrome/103.0.0.0 Safari/537.36" etag="oTVSVqTGS4IwMOjYI1ig" version="20.2.2" type="github">
  <diagram id="1eCL9aHPi95bV1IUGG4Y" name="페이지-1">
    <mxGraphModel dx="865" dy="793" grid="1" gridSize="10" guides="1" tooltips="1" connect="1" arrows="1" fold="1" page="1" pageScale="1" pageWidth="827" pageHeight="1169" math="0" shadow="0">
      <root>
        <mxCell id="0" />
        <mxCell id="1" parent="0" />
        <mxCell id="PeJELjTD76VfOJX-bESj-1" value="" style="shape=actor;whiteSpace=wrap;html=1;" vertex="1" parent="1">
          <mxGeometry x="90" y="197.5" width="70" height="110" as="geometry" />
        </mxCell>
        <mxCell id="PeJELjTD76VfOJX-bESj-10" style="rounded=0;orthogonalLoop=1;jettySize=auto;html=1;exitX=0.855;exitY=0.145;exitDx=0;exitDy=0;exitPerimeter=0;entryX=0;entryY=0.5;entryDx=0;entryDy=0;entryPerimeter=0;fontSize=17;" edge="1" parent="1" source="PeJELjTD76VfOJX-bESj-4" target="PeJELjTD76VfOJX-bESj-5">
          <mxGeometry relative="1" as="geometry" />
        </mxCell>
        <mxCell id="PeJELjTD76VfOJX-bESj-11" style="edgeStyle=none;rounded=0;orthogonalLoop=1;jettySize=auto;html=1;exitX=0.855;exitY=0.855;exitDx=0;exitDy=0;exitPerimeter=0;entryX=0;entryY=0.5;entryDx=0;entryDy=0;entryPerimeter=0;fontSize=17;" edge="1" parent="1" source="PeJELjTD76VfOJX-bESj-4" target="PeJELjTD76VfOJX-bESj-8">
          <mxGeometry relative="1" as="geometry" />
        </mxCell>
        <mxCell id="PeJELjTD76VfOJX-bESj-4" value="&lt;b&gt;API&lt;/b&gt;" style="strokeWidth=2;html=1;shape=mxgraph.flowchart.start_2;whiteSpace=wrap;fontSize=17;" vertex="1" parent="1">
          <mxGeometry x="290" y="210" width="110" height="110" as="geometry" />
        </mxCell>
        <mxCell id="PeJELjTD76VfOJX-bESj-13" style="edgeStyle=none;rounded=0;orthogonalLoop=1;jettySize=auto;html=1;exitX=1;exitY=0.5;exitDx=0;exitDy=0;exitPerimeter=0;fontSize=17;entryX=0.555;entryY=0.011;entryDx=0;entryDy=0;entryPerimeter=0;" edge="1" parent="1" source="PeJELjTD76VfOJX-bESj-5" target="PeJELjTD76VfOJX-bESj-9">
          <mxGeometry relative="1" as="geometry">
            <mxPoint x="710" y="240" as="targetPoint" />
          </mxGeometry>
        </mxCell>
        <mxCell id="PeJELjTD76VfOJX-bESj-5" value="Fn" style="strokeWidth=2;html=1;shape=mxgraph.flowchart.start_2;whiteSpace=wrap;fontSize=17;" vertex="1" parent="1">
          <mxGeometry x="520" y="140" width="80" height="80" as="geometry" />
        </mxCell>
        <mxCell id="PeJELjTD76VfOJX-bESj-12" style="edgeStyle=none;rounded=0;orthogonalLoop=1;jettySize=auto;html=1;entryX=0.5;entryY=0;entryDx=0;entryDy=0;entryPerimeter=0;fontSize=17;exitX=1;exitY=0.5;exitDx=0;exitDy=0;exitPerimeter=0;" edge="1" parent="1" source="PeJELjTD76VfOJX-bESj-8" target="PeJELjTD76VfOJX-bESj-9">
          <mxGeometry relative="1" as="geometry">
            <mxPoint x="610" y="340" as="sourcePoint" />
          </mxGeometry>
        </mxCell>
        <mxCell id="PeJELjTD76VfOJX-bESj-8" value="Fn" style="strokeWidth=2;html=1;shape=mxgraph.flowchart.start_2;whiteSpace=wrap;fontSize=17;" vertex="1" parent="1">
          <mxGeometry x="520" y="300" width="80" height="80" as="geometry" />
        </mxCell>
        <mxCell id="PeJELjTD76VfOJX-bESj-9" value="&lt;b&gt;DB&lt;/b&gt;" style="strokeWidth=2;html=1;shape=mxgraph.flowchart.direct_data;whiteSpace=wrap;fontSize=17;rotation=-90;" vertex="1" parent="1">
          <mxGeometry x="707.5" y="197.5" width="110" height="95" as="geometry" />
        </mxCell>
        <mxCell id="PeJELjTD76VfOJX-bESj-16" value="" style="endArrow=classic;html=1;rounded=0;fontSize=17;" edge="1" parent="1">
          <mxGeometry width="50" height="50" relative="1" as="geometry">
            <mxPoint x="170" y="260" as="sourcePoint" />
            <mxPoint x="280" y="260" as="targetPoint" />
            <Array as="points">
              <mxPoint x="220" y="260" />
            </Array>
          </mxGeometry>
        </mxCell>
        <mxCell id="PeJELjTD76VfOJX-bESj-17" value="&lt;font style=&quot;font-size: 12px;&quot;&gt;&lt;b&gt;Request&lt;/b&gt;&lt;/font&gt;" style="text;html=1;align=center;verticalAlign=middle;resizable=0;points=[];autosize=1;strokeColor=none;fillColor=none;fontSize=17;" vertex="1" parent="1">
          <mxGeometry x="185" y="265" width="70" height="30" as="geometry" />
        </mxCell>
      </root>
    </mxGraphModel>
  </diagram>
</mxfile>
